<svg width="512" height="512" viewBox="0 0 512 512" xmlns="http://www.w3.org/2000/svg">

  <!-- Скруглённый фон -->
  <rect width="512" height="512" fill="#759242" rx="40" />

  <!-- Шестиугольник с мягкими углами -->
  <path d="
    M 256 32
    C 260 32, 270 34, 274 36
    L 424 144
    C 428 147, 430 153, 430 158
    L 430 354
    C 430 359, 428 365, 424 368
    L 274 476
    C 270 478, 260 480, 256 480
    C 252 480, 242 478, 238 476
    L 88 368
    C 84 365, 82 359, 82 354
    L 82 158
    C 82 153, 84 147, 88 144
    L 238 36
    C 242 34, 252 32, 256 32
    Z"
    fill="#DED3A6" />

  <!-- Контент шестиугольника -->
  <g transform="translate(0, 20)">
    <!-- Уменьшенная и приподнятая внутренняя фигура -->
    <path d="
      M256 150
      C270 130, 290 120, 285 105
      C280 90, 250 95, 245 115
      C240 135, 260 160, 275 180
      C288 195, 270 205, 250 200
      C230 195, 225 215, 240 225
      C255 235, 275 245, 260 265
      C245 285, 270 295, 280 280
      C290 265, 270 250, 260 240
      C250 230, 245 220, 256 210
      C266 200, 255 190, 248 180
      C240 170, 245 160, 256 150
    "
    fill="#759242" />

    <!-- Текст -->
    <text x="256" y="360" text-anchor="middle" font-size="56" fill="#759242" letter-spacing="10">
      ESHEVS
    </text>
  </g>
</svg>
