<svg width="34" height="34" viewBox="0 0 34 34" fill="none" xmlns="http://www.w3.org/2000/svg">
<path d="M7.99408 4.65476C7.04402 4.65476 6.27384 5.42494 6.27384 6.375V8.60119C6.27384 9.55125 7.04402 10.3214 7.99408 10.3214H10.2203C11.1703 10.3214 11.9405 9.55125 11.9405 8.60119V6.375C11.9405 5.42494 11.1703 4.65476 10.2203 4.65476H7.99408ZM7.99408 3.2381H10.2203C11.9527 3.2381 13.3572 4.64254 13.3572 6.375V8.60119C13.3572 10.3337 11.9527 11.7381 10.2203 11.7381H7.99408C6.26162 11.7381 4.85718 10.3337 4.85718 8.60119V6.375C4.85718 4.64254 6.26162 3.2381 7.99408 3.2381ZM7.99408 20.2381H10.2203C11.9527 20.2381 13.3572 21.6425 13.3572 23.375V25.6012C13.3572 27.3337 11.9527 28.7381 10.2203 28.7381H7.99408C6.26162 28.7381 4.85718 27.3337 4.85718 25.6012V23.375C4.85718 21.6425 6.26162 20.2381 7.99408 20.2381ZM7.99408 21.6548C7.04402 21.6548 6.27384 22.4249 6.27384 23.375V25.6012C6.27384 26.5513 7.04402 27.3214 7.99408 27.3214H10.2203C11.1703 27.3214 11.9405 26.5513 11.9405 25.6012V23.375C11.9405 22.4249 11.1703 21.6548 10.2203 21.6548H7.99408ZM24.9941 3.2381H27.2203C28.9527 3.2381 30.3572 4.64254 30.3572 6.375V8.60119C30.3572 10.3337 28.9527 11.7381 27.2203 11.7381H24.9941C23.2616 11.7381 21.8572 10.3337 21.8572 8.60119V6.375C21.8572 4.64254 23.2616 3.2381 24.9941 3.2381ZM24.9941 4.65476C24.044 4.65476 23.2738 5.42494 23.2738 6.375V8.60119C23.2738 9.55125 24.044 10.3214 24.9941 10.3214H27.2203C28.1703 10.3214 28.9405 9.55125 28.9405 8.60119V6.375C28.9405 5.42494 28.1703 4.65476 27.2203 4.65476H24.9941ZM19.0238 27.3214V26.6131C19.0238 26.2219 19.341 25.9048 19.7322 25.9048C20.1234 25.9048 20.4405 26.2219 20.4405 26.6131V27.3214H21.1488C21.54 27.3214 21.8572 27.6386 21.8572 28.0298C21.8572 28.421 21.54 28.7381 21.1488 28.7381H18.3155C17.9243 28.7381 17.6072 28.421 17.6072 28.0298C17.6072 27.6386 17.9243 27.3214 18.3155 27.3214H19.0238ZM19.0238 14.5714H20.4405V13.8631C20.4405 13.4719 20.7576 13.1548 21.1488 13.1548C21.54 13.1548 21.8572 13.4719 21.8572 13.8631V15.2798C21.8572 15.671 21.54 15.9881 21.1488 15.9881H16.8988C16.5076 15.9881 16.1905 15.671 16.1905 15.2798C16.1905 14.8886 16.5076 14.5714 16.8988 14.5714H17.6072V13.1548H16.8988C16.5076 13.1548 16.1905 12.8376 16.1905 12.4464C16.1905 12.0552 16.5076 11.7381 16.8988 11.7381H18.3155C18.7067 11.7381 19.0238 12.0552 19.0238 12.4464V14.5714ZM27.5238 15.9881V16.6964C27.5238 17.0876 27.2067 17.4048 26.8155 17.4048C26.4243 17.4048 26.1072 17.0876 26.1072 16.6964V13.8631C26.1072 13.4719 26.4243 13.1548 26.8155 13.1548C27.2067 13.1548 27.5238 13.4719 27.5238 13.8631V14.5714H28.9405V13.8631C28.9405 13.4719 29.2576 13.1548 29.6488 13.1548C30.04 13.1548 30.3572 13.4719 30.3572 13.8631V15.2798C30.3572 15.671 30.04 15.9881 29.6488 15.9881H27.5238ZM19.0238 18.8214H16.8988C16.5076 18.8214 16.1905 18.5043 16.1905 18.1131C16.1905 17.7219 16.5076 17.4048 16.8988 17.4048H19.7322C20.1234 17.4048 20.4405 17.7219 20.4405 18.1131V20.9464C20.4405 21.3376 20.1234 21.6548 19.7322 21.6548H15.4822C15.091 21.6548 14.7738 21.3376 14.7738 20.9464C14.7738 20.5552 15.091 20.2381 15.4822 20.2381H19.0238V18.8214ZM8.39884 6.07143H9.81551C10.2067 6.07143 10.5238 6.38856 10.5238 6.77976V8.19643C10.5238 8.58763 10.2067 8.90476 9.81551 8.90476H8.39884C8.00764 8.90476 7.69051 8.58763 7.69051 8.19643V6.77976C7.69051 6.38856 8.00764 6.07143 8.39884 6.07143ZM8.39884 23.0714H9.81551C10.2067 23.0714 10.5238 23.3886 10.5238 23.7798V25.1964C10.5238 25.5876 10.2067 25.9048 9.81551 25.9048H8.39884C8.00764 25.9048 7.69051 25.5876 7.69051 25.1964V23.7798C7.69051 23.3886 8.00764 23.0714 8.39884 23.0714ZM25.3988 6.07143H26.8155C27.2067 6.07143 27.5238 6.38856 27.5238 6.77976V8.19643C27.5238 8.58763 27.2067 8.90476 26.8155 8.90476H25.3988C25.0076 8.90476 24.6905 8.58763 24.6905 8.19643V6.77976C24.6905 6.38856 25.0076 6.07143 25.3988 6.07143ZM19.0238 6.07143V4.65476H16.1905V6.77976C16.1905 7.17097 15.8734 7.4881 15.4822 7.4881C15.091 7.4881 14.7738 7.17097 14.7738 6.77976V3.94643C14.7738 3.55523 15.091 3.2381 15.4822 3.2381H19.7322C20.1234 3.2381 20.4405 3.55523 20.4405 3.94643V6.77976C20.4405 7.17097 20.1234 7.4881 19.7322 7.4881H18.3155C17.9243 7.4881 17.6072 7.17097 17.6072 6.77976C17.6072 6.38856 17.9243 6.07143 18.3155 6.07143H19.0238ZM15.4822 10.3214C15.091 10.3214 14.7738 10.0043 14.7738 9.6131C14.7738 9.2219 15.091 8.90476 15.4822 8.90476H19.7322C20.1234 8.90476 20.4405 9.2219 20.4405 9.6131C20.4405 10.0043 20.1234 10.3214 19.7322 10.3214H15.4822ZM16.1905 24.4881V28.0298C16.1905 28.421 15.8734 28.7381 15.4822 28.7381C15.091 28.7381 14.7738 28.421 14.7738 28.0298V23.7798C14.7738 23.3886 15.091 23.0714 15.4822 23.0714H19.7322C20.1234 23.0714 20.4405 23.3886 20.4405 23.7798C20.4405 24.171 20.1234 24.4881 19.7322 24.4881H16.1905ZM13.3572 15.9881H14.0655C14.4567 15.9881 14.7738 16.3052 14.7738 16.6964V18.1131C14.7738 18.5043 14.4567 18.8214 14.0655 18.8214C13.6743 18.8214 13.3572 18.5043 13.3572 18.1131V17.4048H12.6488C12.2576 17.4048 11.9405 17.0876 11.9405 16.6964V13.8631C11.9405 13.4719 12.2576 13.1548 12.6488 13.1548H14.0655C14.4567 13.1548 14.7738 13.4719 14.7738 13.8631C14.7738 14.2543 14.4567 14.5714 14.0655 14.5714H13.3572V15.9881ZM9.10718 14.5714H8.39884C8.00764 14.5714 7.69051 14.2543 7.69051 13.8631C7.69051 13.4719 8.00764 13.1548 8.39884 13.1548H9.81551C10.2067 13.1548 10.5238 13.4719 10.5238 13.8631V18.1131C10.5238 18.5043 10.2067 18.8214 9.81551 18.8214C9.42431 18.8214 9.10718 18.5043 9.10718 18.1131V14.5714ZM23.2738 13.8631C23.2738 13.4719 23.591 13.1548 23.9822 13.1548C24.3734 13.1548 24.6905 13.4719 24.6905 13.8631V16.6964C24.6905 17.0876 24.3734 17.4048 23.9822 17.4048C23.591 17.4048 23.2738 17.0876 23.2738 16.6964V13.8631ZM28.9405 18.8214V18.1131C28.9405 17.7219 29.2576 17.4048 29.6488 17.4048C30.04 17.4048 30.3572 17.7219 30.3572 18.1131V19.5298C30.3572 19.921 30.04 20.2381 29.6488 20.2381H25.3988C25.0076 20.2381 24.6905 19.921 24.6905 19.5298C24.6905 19.1386 25.0076 18.8214 25.3988 18.8214H28.9405ZM23.2738 21.6548H26.8155C27.2067 21.6548 27.5238 21.9719 27.5238 22.3631C27.5238 22.7543 27.2067 23.0714 26.8155 23.0714H22.5655C22.1743 23.0714 21.8572 22.7543 21.8572 22.3631V19.5298C21.8572 19.1386 22.1743 18.8214 22.5655 18.8214C22.9567 18.8214 23.2738 19.1386 23.2738 19.5298V21.6548ZM28.9405 27.3214V22.3631C28.9405 21.9719 29.2576 21.6548 29.6488 21.6548C30.04 21.6548 30.3572 21.9719 30.3572 22.3631V28.0298C30.3572 28.421 30.04 28.7381 29.6488 28.7381H23.9822C23.591 28.7381 23.2738 28.421 23.2738 28.0298C23.2738 27.6386 23.591 27.3214 23.9822 27.3214H28.9405ZM22.5655 25.9048C22.1743 25.9048 21.8572 25.5876 21.8572 25.1964C21.8572 24.8052 22.1743 24.4881 22.5655 24.4881H26.8155C27.2067 24.4881 27.5238 24.8052 27.5238 25.1964C27.5238 25.5876 27.2067 25.9048 26.8155 25.9048H22.5655ZM6.27384 17.4048H6.98218C7.37338 17.4048 7.69051 17.7219 7.69051 18.1131C7.69051 18.5043 7.37338 18.8214 6.98218 18.8214H5.56551C5.17431 18.8214 4.85718 18.5043 4.85718 18.1131V13.8631C4.85718 13.4719 5.17431 13.1548 5.56551 13.1548C5.95671 13.1548 6.27384 13.4719 6.27384 13.8631V17.4048Z" fill="white"/>
</svg>
